# xmcd
#
# Track frame offsets:
#	150
#	14954
#	32487
#	46629
#	57634
#	72591
#	89052
#	101789
#	114751
#	126671
#
# Disc length: 1894 seconds
#
# Revision: 1
# Processed by: cddbd v1.5.2PL0 Copyright (c) Steve Scherf et al.
# Submitted via: audiograbber 1.83.01
#
DISCID=9407640a
DTITLE=Various Artist - 1980s Country #1s
DYEAR=2006
DGENRE=Country
TTITLE0=He Stopped Loving Her Today - George Jones
TTITLE1=I Think I'll Just Stay Here And Drink - Merle Haggard
TTITLE2=Dixie Road - Lee Greenwood
TTITLE3=Set 'Em Up Joe - Vern Gosdin
TTITLE4=Fool For Your Love - Mickey Gilley
TTITLE5=Joe Knows How To Live - Eddy Raven
TTITLE6=Give Me One More Chance - Exile
TTITLE7=Your Heart's Not In It - Janie Fricke
TTITLE8=Older Women - Ronnie McDowell
TTITLE9=Twinkle Twinkle Lucky Star - Merle Haggard
EXTD=
EXTT0=
EXTT1=
EXTT2=
EXTT3=
EXTT4=
EXTT5=
EXTT6=
EXTT7=
EXTT8=
EXTT9=
PLAYORDER=
